<svg xmlns="http://www.w3.org/2000/svg" xmlns:xlink="http://www.w3.org/1999/xlink" version="1.1" width="256" height="256" viewBox="0 0 256 256" xml:space="preserve">
<g style="stroke: none; stroke-width: 0; stroke-dasharray: none; stroke-linecap: butt; stroke-linejoin: miter; stroke-miterlimit: 10; fill: none; fill-rule: nonzero; opacity: 1;" transform="translate(1.4065934065934016 1.4065934065934016) scale(2.81 2.81)">
	<path d="M 75.648 32.574 l 14.266 24.809 c 0.01 0.017 0.02 0.035 0.03 0.052 H 65.157 L 48.876 29.209 l 12.42 -21.498 c 0.01 0.017 0.02 0.033 0.028 0.05 L 75.648 32.574 z" style="stroke: none; stroke-width: 1; stroke-dasharray: none; stroke-linecap: butt; stroke-linejoin: miter; stroke-miterlimit: 10; fill: rgb(0,0,0); fill-rule: nonzero; opacity: 1;" transform=" matrix(1 0 0 1 0 0) " stroke-linecap="round"/>
	<path d="M 55.434 4.365 c 0.014 0 0.027 0 0.041 0 L 45 22.497 L 34.525 4.365 c 0.014 0 0.028 0 0.041 0 H 55.434 z" style="stroke: none; stroke-width: 1; stroke-dasharray: none; stroke-linecap: butt; stroke-linejoin: miter; stroke-miterlimit: 10; fill: rgb(0,0,0); fill-rule: nonzero; opacity: 1;" transform=" matrix(1 0 0 1 0 0) " stroke-linecap="round"/>
	<path d="M 0.023 57.395 l 28.66 -49.646 c 0.007 -0.012 0.014 -0.024 0.021 -0.037 l 12.42 21.498 l -16.28 28.226 H 0 C 0.008 57.422 0.015 57.408 0.023 57.395 z" style="stroke: none; stroke-width: 1; stroke-dasharray: none; stroke-linecap: butt; stroke-linejoin: miter; stroke-miterlimit: 10; fill: rgb(0,0,0); fill-rule: nonzero; opacity: 1;" transform=" matrix(1 0 0 1 0 0) " stroke-linecap="round"/>
	<path d="M 6.112 74.733 l -6.082 -10.53 C 0.02 64.185 0.01 64.167 0 64.149 h 20.966 L 10.486 82.289 c -0.011 -0.018 -0.021 -0.037 -0.031 -0.054 L 6.112 74.733 z" style="stroke: none; stroke-width: 1; stroke-dasharray: none; stroke-linecap: butt; stroke-linejoin: miter; stroke-miterlimit: 10; fill: rgb(0,0,0); fill-rule: nonzero; opacity: 1;" transform=" matrix(1 0 0 1 0 0) " stroke-linecap="round"/>
	<path d="M 16.308 85.635 l 12.413 -21.486 h 32.436 l 5.668 11.137 c 0.051 0.101 0.107 0.198 0.167 0.292 l 6.459 10.057 H 16.349 C 16.335 85.635 16.321 85.635 16.308 85.635 z" style="stroke: none; stroke-width: 1; stroke-dasharray: none; stroke-linecap: butt; stroke-linejoin: miter; stroke-miterlimit: 10; fill: rgb(0,0,0); fill-rule: nonzero; opacity: 1;" transform=" matrix(1 0 0 1 0 0) " stroke-linecap="round"/>
	<path d="M 89.977 64.19 l -8.623 14.937 l -1.82 3.125 c -0.007 0.012 -0.014 0.024 -0.021 0.036 L 69.034 64.149 H 90 C 89.992 64.163 89.985 64.177 89.977 64.19 z" style="stroke: none; stroke-width: 1; stroke-dasharray: none; stroke-linecap: butt; stroke-linejoin: miter; stroke-miterlimit: 10; fill: rgb(0,0,0); fill-rule: nonzero; opacity: 1;" transform=" matrix(1 0 0 1 0 0) " stroke-linecap="round"/>
</g>
</svg>